<?xml version="1.0" encoding="UTF-8" standalone="no"?>
<svg
   xmlns:dc="http://purl.org/dc/elements/1.1/"
   xmlns:cc="http://creativecommons.org/ns#"
   xmlns:rdf="http://www.w3.org/1999/02/22-rdf-syntax-ns#"
   xmlns:svg="http://www.w3.org/2000/svg"
   xmlns="http://www.w3.org/2000/svg"
   xmlns:sodipodi="http://sodipodi.sourceforge.net/DTD/sodipodi-0.dtd"
   xmlns:inkscape="http://www.inkscape.org/namespaces/inkscape"
   width="943.57483"
   height="740.66931"
   viewBox="0 0 249.65436 195.9687"
   version="1.1"
   id="svg1163"
   inkscape:version="1.0 (4035a4fb49, 2020-05-01)"
   sodipodi:docname="BOMBAinfo.svg">
  <defs
     id="defs1157">
    <rect
       id="rect965"
       height="35.151787"
       width="92.226189"
       y="255.88988"
       x="52.160713" />
    <rect
       id="rect1735"
       height="35.151787"
       width="92.226189"
       y="255.88988"
       x="52.160713" />
    <clipPath
       clipPathUnits="userSpaceOnUse"
       id="clipPath1870">
      <path
         id="path1872"
         style="fill:#ff0000;fill-opacity:1;fill-rule:nonzero;stroke:none;stroke-width:0.264583"
         d="m 216.09077,-133.68129 15.92802,16.2069 16.20728,-15.92838 -7.99679,-8.13681 c 0.0181,0.0516 0.023,0.0915 0.008,0.12723 0.006,0.001 0.0109,0.003 0.0156,0.003 0.10797,0.005 0.11869,0.0347 0.18868,0.11162 0.0549,0.0694 0.0726,0.0946 0.13205,0.16078 0.0185,0.0226 0.0445,0.0388 0.0593,0.0641 0.0181,0.0286 0.0569,0.065 0.0394,0.0939 -0.0959,0.15797 -0.17248,0.16618 -0.27678,0.14449 -0.0133,0.0196 -0.0318,0.0409 -0.0413,0.0369 0.0203,0.0124 0.0366,0.0251 0.0275,0.0404 0.0526,0.0641 0.0542,0.10622 -0.1688,0.16664 -0.0167,0.005 -0.0286,-0.008 -0.0396,-0.0241 -0.008,0.006 -0.0162,0.008 -0.0242,0.0137 0.009,0.009 0.0168,0.0173 0.0257,0.0262 0.0396,0.0403 0.0826,0.0773 0.12353,0.11626 0.0472,-0.002 0.0913,0.003 0.128,0.03 0.0593,0.0437 0.12083,0.15957 0.0676,0.21034 -0.0276,0.0264 -0.0636,0.0355 -0.10158,0.0404 -0.009,0.006 -0.021,0.006 -0.0315,0.009 -0.0132,0.0179 -0.0252,0.0369 -0.041,0.0526 -0.01,0.01 -0.0228,-0.0149 -0.0341,-0.0223 -0.002,-0.002 -0.006,-0.002 -0.008,-0.004 -0.013,0.031 -0.0366,0.0337 -0.088,0.0329 -0.0623,-0.001 -0.0686,-0.002 -0.12749,-0.005 -0.009,0.001 -0.0224,6.4e-4 -0.0315,0.003 -0.11743,0.0295 -0.23451,0.0616 -0.34842,0.10259 -0.002,0.002 -0.0795,0.0521 -0.10211,0.0612 -0.003,0.001 -0.006,-0.002 -0.008,-9e-4 -0.0336,0.0167 -0.0647,0.0412 -0.0999,0.054 -0.0397,0.0146 -0.0891,-0.0184 -0.12714,-0.003 -0.38319,-0.0401 0.12463,0.0149 -0.18507,-0.0232 -0.12005,-0.0148 -0.21279,-0.006 -0.31905,-0.0806 l -0.002,0.002 c -0.19172,-0.13397 -0.0718,-0.29203 0.13906,-0.19102 0.0168,0.008 0.0335,0.0186 0.0505,0.025 0.011,0.004 0.068,0.005 0.0723,0.005 0.0249,0.002 0.0491,0.004 0.0738,0.007 -0.009,-0.0155 -0.0183,-0.0311 -0.0258,-0.0478 -0.0244,-0.003 -0.0514,-0.01 -0.0805,-0.023 -0.014,-0.007 -0.0283,-0.0133 -0.0423,-0.02 -0.0167,-0.008 -0.11578,-0.0503 -0.11122,-0.0689 0.0264,-0.10766 0.0429,-0.16255 0.0652,-0.18581 0.0222,-0.0233 0.0506,-0.0151 0.10082,0.004 0.0972,0.037 0.0676,0.0248 0.1543,0.0744 0.0447,0.0315 0.0608,0.0418 0.0686,0.0543 0.0535,-0.003 0.10743,-0.007 0.16088,-0.011 0.0474,-0.002 0.0948,-0.004 0.1422,-0.006 -9.1e-4,-9.6e-4 -0.002,-0.002 -0.003,-0.003 -0.053,-0.054 -0.10365,-0.11075 -0.15541,-0.16606 -0.0228,-0.0108 -0.0444,-0.0232 -0.0635,-0.0412 -0.0166,-0.0131 -0.0301,-0.0306 -0.0419,-0.0487 -0.008,-0.0123 -0.0331,-0.025 -0.0249,-0.0363 0.005,-0.006 0.0113,-0.0115 0.0166,-0.0178 -0.0276,-0.0134 -0.0581,-0.0319 -0.0847,-0.0464 -0.007,0.021 -0.0164,0.0418 -0.0221,0.063 -0.0383,0.14215 -0.11547,-0.0213 -0.16494,-0.11105 -0.006,3.4e-4 -0.0109,6.1e-4 -0.0165,9.8e-4 -0.008,0.002 -0.0175,0.005 -0.026,0.008 0.002,0.0258 0.008,0.0402 0.0226,0.051 0.005,5.3e-4 0.011,1.9e-4 0.0157,0.001 0.006,0.002 0.0138,0.0178 0.009,0.0151 -0.0156,-0.008 -0.0181,-0.0112 -0.0248,-0.0162 -0.0286,-0.003 -0.0631,0.004 -0.0773,-0.0189 -0.004,-0.008 -0.005,-0.0104 -0.01,-0.017 -0.0496,0.01 -0.0804,-6.9e-4 -0.0425,-0.0757 -0.0156,-0.0283 -0.0249,-0.0503 -0.0311,-0.0694 -0.008,-0.003 -0.009,-0.002 -0.0186,-0.006 -0.0192,0.0174 -0.0378,0.0273 -0.0528,0.0236 0.0241,0.13603 -0.20784,0.14824 -0.34731,0.14279 -0.003,0.0101 0.001,-0.004 -0.003,0.0131 -0.0865,0.002 -0.17829,0.0334 -0.26021,0.005 -0.048,-0.0164 -0.0833,-0.0549 -0.11788,-0.0943 -0.11388,-0.0379 -0.14983,-0.0517 -0.1931,-0.066 -0.0347,-0.003 -0.0693,-0.006 -0.10405,-0.009 -0.0635,0.0444 -0.14225,0.0827 -0.20398,0.0483 -0.0316,-0.0174 -0.0551,-0.044 -0.0762,-0.073 -0.0144,-6.3e-4 -0.0308,0.001 -0.0468,0.003 -0.006,0.015 -0.0119,0.0301 -0.0179,0.0452 0.002,0.008 0.008,0.0292 0.009,0.0344 0.004,0.0357 0.0482,0.10732 0.0122,0.10681 -0.0147,-2.4e-4 -0.0244,-3.3e-4 -0.0392,-0.002 0.004,0.0135 0.004,0.0265 -0.007,0.027 -0.0302,9.9e-4 -0.051,-0.003 -0.0763,-0.004 -0.004,0.004 -0.006,0.009 -0.0104,0.0125 -0.0642,0.0571 -0.18495,0.0845 -0.255,0.0347 -0.0601,-0.0427 -0.10184,-0.10362 -0.13966,-0.16777 -0.0445,-0.0324 -0.11022,-0.0846 -0.16587,-0.12971 -0.10607,0.0175 -0.21469,0.0257 -0.32248,0.0199 0.007,0.0196 0.0166,0.0384 0.0196,0.059 0.0129,0.029 0.026,0.0581 0.0387,0.0873 0.0136,0.0316 0.0723,0.0925 0.0386,0.0968 -0.0192,0.002 -0.0396,-0.002 -0.0599,-0.002 6.8e-4,0.0735 -0.0539,0.0777 -0.12466,0.0486 -0.0125,0.0122 -0.0235,0.027 -0.0354,0.0385 -0.0202,0.018 -0.021,-0.0395 -0.0294,-0.0719 -0.0145,-0.009 -0.0273,-0.0157 -0.0418,-0.0263 -0.002,0.004 -0.005,0.007 -0.007,0.0113 -0.004,-0.0116 -0.005,-0.0141 -0.009,-0.0246 -0.0307,-0.0233 -0.0625,-0.0478 -0.0885,-0.0746 -0.0129,-0.0133 -0.0379,-0.0661 -0.0661,-0.12919 -0.0285,0.008 -0.057,0.0166 -0.0857,0.0241 -0.006,0.0346 -0.0103,0.0605 -0.0188,0.10617 -0.0351,0.0356 -0.0568,0.11989 -0.10472,0.10725 -0.0799,-0.0217 -0.1498,-0.0762 -0.21291,-0.14288 -0.0412,0.007 -0.0824,0.0154 -0.12368,0.0208 -0.14841,0.0198 -0.27637,0.0324 -0.40074,0.028 -0.002,0.002 -0.002,0.006 -0.007,0.005 -0.004,-3.1e-4 -0.008,-0.002 -0.0116,-0.005 -0.10426,-0.005 -0.20797,-0.0302 -0.3162,-0.0703 -0.0378,0.0199 -0.0755,0.0288 -0.10384,0.006 -0.0176,-0.0137 -0.0284,-0.0327 -0.0409,-0.0496 -0.006,0.007 -0.0125,0.0149 -0.0181,0.0221 0.0115,0.043 0.0178,0.0717 0.0336,0.12783 0.0104,0.0264 0.0206,0.0497 0.0297,0.0722 0.0229,0.0271 0.0531,0.054 0.0337,0.0734 -0.01,0.01 -0.0175,0.0146 -0.0265,0.0231 -0.008,0.0175 -0.0274,0.0334 -0.0556,0.0481 -0.0486,0.0363 -0.0822,0.0445 -0.107,0.0363 -0.008,0.002 -0.01,0.004 -0.0177,0.006 -0.0373,0.008 -0.0376,-0.0666 -0.0558,-0.10026 -0.0666,-0.12367 -0.13215,-0.24804 -0.19775,-0.37225 -0.028,0.007 -0.0565,0.0116 -0.0838,0.0208 -0.027,0.005 -0.0771,0.0127 -0.1259,0.0208 0.0617,0.11446 0.12347,0.22891 0.18339,0.34434 0.0431,0.0401 0.0882,0.0807 0.0698,0.12778 -0.0145,0.0368 -0.052,0.0515 -0.0937,0.0617 -0.0297,0.0379 -0.0615,0.0703 -0.10511,0.0671 -0.0707,-0.005 -0.0783,-0.11853 -0.11649,-0.17824 -0.2062,-0.32294 -0.20923,-0.33081 -0.22493,-0.35641 -0.0171,0.0951 -0.0395,0.20161 -0.0761,0.3494 -0.0254,0.10328 -0.0441,0.21237 -0.10057,0.30244 -0.0307,0.049 -0.0944,0.11596 -0.14696,0.0923 -0.0961,-0.044 -0.14796,-0.1547 -0.19553,-0.24908 -0.0644,-0.12732 -0.0978,-0.26801 -0.14194,-0.40393 -0.0257,0.0245 -0.0562,0.0457 -0.0864,0.0566 -0.0558,0.0202 -0.11648,0.002 -0.17639,-0.0136 -0.006,0.0599 -0.01,0.11999 -0.0151,0.18002 -0.0175,0.0662 0.005,0.16175 -0.0525,0.19943 -0.0699,0.046 -0.18149,0.0483 -0.25032,3.8e-4 -0.073,-0.0506 -0.0711,-0.16235 -0.10275,-0.24535 -0.029,-0.0761 -0.055,-0.15349 -0.0817,-0.23056 -0.0287,-0.0198 -0.0326,-0.0347 -0.0164,-0.0462 -0.004,-0.0108 -0.008,-0.0214 -0.0114,-0.0323 -0.0117,0.003 -0.0184,0.002 -0.0285,0.003 -0.18722,0.11082 -0.28667,-0.0158 -0.35086,-0.16164 -0.002,-2.1e-4 -0.009,-6.2e-4 -0.0117,-8.3e-4 -0.012,0.10782 0.0453,0.23759 -0.0189,0.32506 -0.0447,0.0608 -0.14537,0.0241 -0.22351,0.0269 0.0209,0.10834 0.033,0.20631 -0.004,0.29011 1.8e-4,9.3e-4 -2e-4,0.002 -2e-5,0.003 0.009,0.0362 0.0629,0.11433 0.0261,0.10839 -0.0361,-0.006 -0.065,-0.0151 -0.0926,-0.0249 -0.0338,0.0289 -0.0754,0.0567 -0.1359,0.0792 -0.0387,0.0145 -0.0186,-0.0807 -0.0282,-0.12083 -0.0193,-0.10377 -0.0412,-0.20734 -0.0583,-0.31148 0.0109,0.14043 0.0221,0.20047 -0.0248,0.28518 0.0133,0.0345 0.0264,0.0693 0.0397,0.10376 4.7e-4,2.8e-4 9.4e-4,1.9e-4 0.001,3.8e-4 4.7e-4,2.8e-4 -0.001,3.6e-4 -0.001,3.6e-4 v -7.4e-4 c -0.0254,-0.0146 -0.056,-0.0241 -0.0856,-0.0347 -0.0294,0.0414 -0.0593,0.0826 -0.11533,0.15175 -0.008,0.0101 -0.0121,-0.0216 -0.0176,-0.0327 -0.0261,-0.0681 -0.0528,-0.13683 -0.079,-0.20495 -0.005,-0.0134 -0.008,-0.0243 -0.0128,-0.0374 -5.8e-4,0.002 -6e-4,0.005 -0.002,0.007 0.005,0.008 0.007,0.0135 -0.002,0.0153 -0.003,7.2e-4 -0.005,-1.5e-4 -0.007,3e-4 -0.003,0.005 -0.006,0.0118 -0.009,0.0171 10e-4,0.0686 -0.0227,0.13198 -0.0991,0.17345 -0.0427,0.0232 -0.0969,0.004 -0.14549,0.006 -0.0469,-0.0315 -0.10396,-0.0514 -0.1406,-0.0944 -0.0173,-0.0202 -0.03,-0.0397 -0.043,-0.0592 -0.06,0.0863 -0.14052,0.15747 -0.21034,0.23643 -0.83163,-0.34954 -0.74126,-0.21436 -0.75303,-0.475 -0.004,-6.9e-4 -0.008,-6.7e-4 -0.0128,-0.002 -0.0222,0.0284 -0.047,0.0411 -0.0864,0.0168 -0.004,0.01 -0.008,0.018 -0.0149,0.0342 -0.004,0.009 3.2e-4,-0.0195 -0.002,-0.0293 -0.002,-0.008 -0.004,-0.0159 -0.006,-0.0234 -0.0147,-0.0123 -0.0369,-0.0379 -0.0557,-0.059 -0.0438,-0.0301 -0.0789,-0.0681 -0.1162,-0.12853 -0.0664,0.019 -0.13295,0.0495 -0.1991,0.0356 -0.0195,-0.004 -0.0178,-0.0275 -0.0142,-0.0528 -0.0115,-0.0267 -0.0234,-0.0531 -0.0373,-0.0785 -0.008,0.003 -0.0167,0.007 -0.026,0.006 -0.0607,-0.005 -0.11449,-0.0515 -0.16424,-0.10739 0.006,0.0304 0.009,0.0588 -0.0124,0.0752 -0.0128,0.01 -0.0226,0.0155 -0.0342,0.0235 10e-4,0.0125 4.5e-4,0.0241 -0.009,0.0346 -0.0229,0.0295 -0.058,0.054 -0.096,0.0697 0.007,0.0375 0.0168,0.0808 -0.0125,0.0956 -0.0737,0.0374 -0.17883,0.0546 -0.24784,0.0103 -0.0648,-0.0426 -0.0521,-0.14607 -0.0734,-0.22062 -0.004,-0.0157 -0.008,-0.0318 -0.012,-0.0476 -3.5e-4,2e-5 -4.4e-4,6.8e-4 -7.5e-4,7.4e-4 -0.006,8.1e-4 -0.005,-0.007 -0.005,-0.0125 l -7.5e-4,-1e-5 c -3.6e-4,-0.001 -1.7e-4,-0.002 -2.8e-4,-0.004 -0.0206,0.0157 -0.0494,0.0239 -0.0912,0.0208 -0.004,-2.6e-4 -0.009,-0.006 -0.012,-0.007 -0.21533,0.2146 -0.22085,0.12352 -0.25732,0.008 -0.0265,-0.16134 -0.0261,-0.1918 -0.0766,-0.35585 -0.012,-0.0386 -0.0623,-0.0769 -0.0447,-0.11331 3.9e-4,-7.3e-4 7.1e-4,-7.8e-4 7.5e-4,-7.4e-4 -0.0148,-0.0106 -0.0226,-0.02 -0.0133,-0.0253 0.0138,-0.008 0.0287,-0.0162 0.043,-0.0248 0.0987,-0.17869 0.14205,-0.13078 0.19989,-0.0436 0.003,0.004 0.006,0.008 0.009,0.0125 0.006,0.01 0.0109,0.0183 0.018,0.0279 9.2e-4,9.5e-4 0.008,0.0104 0.009,0.0129 -0.004,-0.10852 -0.0103,-0.29484 0.0119,-0.31452 0.0646,-0.0567 0.11118,-0.083 0.14658,-0.0905 2e-4,-9.3e-4 2.1e-4,-0.002 4.1e-4,-0.003 0.001,8.7e-4 0.003,0.002 0.004,0.003 0.0352,-0.006 0.0564,0.0111 0.0728,0.0357 0.002,7.6e-4 0.003,4e-4 0.005,7.7e-4 -0.0244,-0.0282 -0.0516,-0.0562 -0.0336,-0.0814 0.0882,-0.1243 0.15391,-0.14109 0.2074,-0.1082 5.6e-4,-1.8e-4 3.8e-4,-7.4e-4 0.002,-3.5e-4 0.0182,-0.002 0.0279,0.0146 0.0352,0.032 0.0234,0.0265 0.0448,0.0611 0.0642,0.0992 0.0361,0.0708 0.0611,0.14666 0.0891,0.22113 0.0475,-0.0268 0.11888,-0.01 0.17729,0.0772 0.0316,-0.008 0.0623,-0.0152 0.082,-0.0168 -0.0156,-0.11932 -0.0285,-0.23974 -0.0425,-0.32706 -3.5e-4,-0.003 -6.5e-4,-0.005 -6.6e-4,-0.008 -0.0329,-0.0587 -0.0669,-0.11813 -0.0369,-0.16951 0.04,-0.0685 0.15631,-0.0262 0.23458,-0.0393 0.007,0.0362 0.007,0.0382 0.0126,0.0637 0.0328,0.0311 0.031,0.0936 0.0489,0.13818 0.0175,0.0437 0.0348,0.0875 0.0522,0.13128 0.10474,-0.0503 0.16804,-0.0844 0.20957,-0.10598 0.0822,-0.27383 0.33732,-0.38075 0.57083,-0.25742 -0.0319,-0.0827 -0.0216,-0.16329 0.10396,-0.27317 0.0293,-0.0255 0.0769,0.0219 0.10814,0.0452 0.10131,0.0733 0.2355,0.20728 0.35524,0.33051 0.005,0.005 0.0103,0.009 0.0153,0.0133 0.0279,-0.002 0.0711,0.0339 0.0967,0.0542 0.004,0.003 0.016,0.0225 0.0213,0.0283 5.3e-4,-0.0449 0.003,-0.0897 0.0161,-0.13251 0.0449,-0.15173 0.18888,-0.31676 0.38267,-0.21813 0.0581,0.0296 0.0672,0.12356 0.0572,0.18797 -0.008,0.0544 -0.0338,0.11114 -0.0676,0.1686 0.008,0.0166 0.0174,0.0436 0.0261,0.0634 0.003,-0.002 0.005,-0.007 0.009,-0.008 0.0675,-0.0164 0.15034,7.9e-4 0.20865,0.0435 0.0248,0.002 0.0481,0.005 0.0726,0.008 0.0391,-0.069 0.0909,-0.12797 0.16512,-0.16302 0.0477,-0.0225 0.0918,0.0445 0.12754,0.11882 0.0132,-0.0575 0.002,-0.15766 0.0599,-0.161 0.0314,-0.002 0.0611,0.006 0.0897,0.0191 -0.0317,-0.0733 -0.0565,-0.14027 -0.0362,-0.16147 l -0.006,-7.3e-4 c 0.005,-0.004 0.01,-0.006 0.0158,-0.006 0.0564,-6.3e-4 0.11686,0.0169 0.16878,0.0464 0.0208,-0.0109 0.041,-0.0215 0.0671,-0.0327 0.024,-0.01 0.0116,0.0262 -0.007,0.0771 0.0124,0.0126 0.0252,0.0256 0.0347,0.0398 0.0498,0.0786 0.0467,0.17709 0.0484,0.27338 0.003,-0.002 0.005,-0.002 0.008,-0.004 0.13365,-0.0649 0.22238,0.004 0.21448,0.0856 0.0129,-0.005 0.0252,-0.0102 0.0382,-0.0158 0.0115,-0.003 0.0366,-0.0101 0.059,-0.0159 -5.7e-4,-0.0187 -0.003,-0.0365 -0.003,-0.0552 -2.8e-4,-0.0252 -0.004,-0.053 -0.004,-0.0793 -0.0209,-0.0488 -0.047,-0.0987 -0.0225,-0.14016 0.12876,-0.21761 0.19313,-0.15834 0.22663,-0.0503 9e-4,9.6e-4 0.003,-5.3e-4 0.004,3.5e-4 0.0255,0.006 0.0332,0.0289 0.0347,0.0587 0.005,0.006 0.0109,0.0111 0.0163,0.0166 0.002,-0.0417 0.003,-0.0802 0.0203,-0.0598 0.0389,0.0464 0.0526,0.10727 0.0654,0.16831 0.0402,-6.1e-4 0.0798,0.004 0.11983,0.005 -0.0283,-0.0364 -0.0573,-0.0723 -0.0852,-0.10898 -0.14387,-0.18436 0.0233,-0.349 0.16842,-0.16552 0.0469,0.0594 0.0969,0.11748 0.14016,0.17961 0.0339,0.0489 0.0655,0.0987 0.0985,0.14813 0.0665,0.0115 0.13138,0.025 0.19333,0.0404 0.006,4.5e-4 0.0153,-6.5e-4 0.0205,-6.2e-4 1.8e-4,1.8e-4 7.6e-4,7.3e-4 7.4e-4,7.5e-4 -0.003,-0.0672 -10e-4,-0.13372 0.0171,-0.19792 9.7e-4,-0.004 0.003,-0.007 0.004,-0.01 -0.003,-0.0234 -0.009,-0.0529 -0.0114,-0.0743 -0.009,-0.0711 -0.0396,-0.14696 -0.016,-0.21464 0.0204,-0.0586 0.0774,-0.15019 0.13522,-0.12781 0.0425,0.0165 0.0915,0.0841 0.14029,0.16426 0.0324,0.0175 0.0653,0.0521 0.0943,0.0725 0.0605,0.0434 0.11653,0.0929 0.17349,0.14105 0.0644,0.004 0.12855,0.009 0.19282,0.0148 -0.01,-0.0392 -0.0281,-0.0859 0.002,-0.087 0.0871,-0.003 0.15175,0.007 0.20149,0.0259 0.025,-0.0284 0.043,-0.0371 0.032,0.0178 0.0349,0.0196 0.0604,0.0471 0.0823,0.0785 0.009,8.6e-4 0.0181,0.003 0.0286,0.004 -0.0131,-0.0712 0.0314,-0.0838 0.0978,-0.0715 0.0316,-0.0347 0.0642,-0.0693 0.0905,-0.10629 0.13732,0.14463 0.15765,0.16721 0.19289,0.21401 0.0124,0.005 0.0284,0.0127 0.0394,0.0171 0.057,0.0244 0.002,0.002 0.0484,0.022 0.0459,0.009 0.0923,0.0148 0.13791,0.0253 0.14517,0.0333 0.31127,0.0961 0.47618,0.16382 -0.0202,-0.0417 -0.0406,-0.0839 -0.052,-0.11629 -0.0887,-0.10837 -0.19691,-0.21207 -0.21006,-0.34277 -0.006,-0.0595 0.0111,-0.18098 0.0687,-0.16529 0.0447,0.0122 0.0829,0.0381 0.11854,0.0683 0.006,-0.007 0.0119,-0.0128 0.0231,-0.009 0.0551,0.0187 0.0815,0.0705 0.0949,0.13712 0.0175,0.0223 0.0378,0.0434 0.0551,0.064 0.0875,0.10942 0.18116,0.3004 0.26586,0.48356 0.0556,0.0249 0.11351,0.0565 0.17133,0.0888 0.086,-0.0163 0.19327,-0.0362 0.24707,-0.0465 0.003,-0.02 0.003,-0.0443 0.009,-0.0595 0.003,-0.009 0.008,-0.0216 0.0116,-0.0332 -0.0163,-0.0524 -0.033,-0.10467 -0.0476,-0.15754 -0.0169,-0.0613 -0.069,-0.12432 -0.0488,-0.18461 10e-4,-0.003 0.002,-0.004 0.002,-0.006 -0.01,-0.029 -0.0207,-0.0584 -0.0303,-0.0869 -0.002,-0.002 -0.008,-0.008 -0.004,-0.008 0.0426,0.004 0.0626,0.004 0.0924,0.006 0.0364,-0.0406 0.0804,-0.0768 0.12118,-0.11186 0.01,-0.009 0.0109,0.0247 0.0168,0.0364 0.0628,0.18409 0.12453,0.36395 0.19075,0.5465 0.0277,-0.005 0.10836,-0.0169 0.13614,-0.0215 -0.0191,-0.0754 -0.0486,-0.1924 -0.0505,-0.19886 -0.0137,-0.0456 -0.034,-0.0899 -0.0522,-0.13419 -0.0411,-0.0811 -0.0612,-0.11979 -0.12648,-0.24666 0.0577,0.52137 -0.29523,-0.60958 -0.12542,-0.53826 0.0724,0.0304 0.13056,0.0715 0.18206,0.11741 -0.005,-0.0349 -0.0184,-0.0784 -0.006,-0.0585 0.0148,0.0279 0.0261,0.0575 0.0391,0.0862 0.15901,0.1618 0.22389,0.39065 0.2874,0.61091 0.0447,0.0879 0.11389,0.20364 0.17562,0.31141 0.0599,-0.009 0.0489,-0.008 0.13576,-0.0211 0.0129,-0.0338 0.0443,-0.0683 0.10659,-0.11418 0.0275,-0.12549 0.0484,-0.25393 0.11642,-0.36077 0.0283,-0.0445 0.0535,-0.0694 0.0794,-0.10051 -0.009,-0.0159 -0.0229,-0.0377 -0.0159,-0.0293 0.007,0.007 0.0141,0.0143 0.021,0.0214 0.0218,-0.0256 0.0416,-0.039 0.0611,-0.0557 -0.0366,-0.0794 -0.0675,-0.13915 -0.1134,-0.23923 -0.0402,-0.10828 -0.29029,-0.68719 0.16459,-0.39579 0.0633,0.0406 0.0675,0.1338 0.0962,0.20328 0.042,0.10128 0.077,0.20559 0.11536,0.30831 0.0397,0.1206 0.0745,0.24219 0.11231,0.36348 0.0537,0.10129 0.11676,0.21041 0.1995,0.33866 0.0158,0.01 0.0264,0.0159 0.0404,0.0241 0.0368,-0.0365 0.10005,-0.0242 0.15427,-0.007 0.0297,-0.1568 0.15263,-0.10877 0.24692,-0.071 0.0886,0.0356 0.1744,0.0773 0.26173,0.11593 0.0285,0.0162 0.22111,0.11963 0.3763,0.21851 0.063,0.004 0.12539,0.006 0.18816,0.005 0.001,-0.003 0.002,-0.006 0.003,-0.009 0.004,-0.009 0.0104,-0.002 0.0178,0.009 0.0483,-0.002 0.0961,-0.008 0.14376,-0.0167 0.0381,-0.0128 0.0757,-0.0267 0.11326,-0.041 0.0106,-0.0179 0.0259,-0.0344 0.0523,-0.0477 0.0235,-0.0119 0.0491,-0.007 0.0749,0.002 0.0111,-0.004 0.0218,-0.008 0.033,-0.0121 0.007,-0.002 0.0164,-0.007 0.025,-0.0108 l -7.82184,-7.9588 z m 9.22278,-8.03232 c 0.0591,-9.5e-4 0.11785,-0.002 0.17689,-0.003 0.0185,-0.0131 0.037,-0.0263 0.0555,-0.0394 -0.007,-0.013 0.0144,0.0398 0.0128,0.0381 0.003,-3.5e-4 0.006,-6.2e-4 0.008,-6.6e-4 0.008,-1.4e-4 0.008,0.002 0.0142,0.003 0.009,-0.007 0.0167,-0.0127 0.0257,-0.0166 -0.005,-0.0168 -0.008,-0.0288 -0.0241,-0.0865 l -3.8e-4,3.7e-4 c -0.0639,-0.22496 0.16048,-0.29733 0.22464,-0.073 0.0556,0.19512 0.0371,0.1052 0.0692,0.32034 0.001,0.008 0.003,0.0168 0.005,0.0253 0.0378,-0.0764 0.0802,-0.15161 0.13203,-0.22322 0.0199,-0.0276 0.0423,-0.0529 0.0661,-0.0773 0.0713,-0.0727 0.15552,-0.13403 0.22943,-0.20448 0.50514,-0.48106 0.92022,-0.18816 0.82898,0.27066 0.52821,-0.21133 0.89719,0.34894 0.33574,0.89381 -0.0101,0.01 -0.0201,0.0199 -0.0302,0.0297 -0.13644,0.13395 -0.26491,0.27656 -0.41273,0.39838 -0.009,0.006 -0.006,0.003 -0.0118,0.008 -0.002,0.009 -0.005,0.0187 -0.013,0.0229 -0.20628,0.11098 -0.42485,0.19833 -0.63696,0.29777 -0.22278,-0.11812 -0.34266,-0.14645 -0.48187,-0.39226 -0.039,-0.0689 -0.0663,-0.13884 -0.0881,-0.20905 -0.0156,-0.002 -0.0316,-0.004 -0.0463,-0.011 -0.046,-0.0208 -0.0692,-0.0686 -0.0907,-0.1181 -0.0264,0.19197 -0.0558,0.3834 -0.0952,0.57325 -0.0476,0.22897 -0.2794,0.18082 -0.23126,-0.0481 0.0656,-0.31182 0.1047,-0.62801 0.14121,-0.94448 -0.0345,-0.0824 -0.0798,-0.19407 -0.11758,-0.30395 -0.0373,0.007 -0.0508,7.6e-4 -0.01,-0.0293 -0.0109,-0.0333 -0.0266,-0.0712 -0.0331,-0.10005 z m 0.47087,0.94505 c 9.4e-4,9.4e-4 7.4e-4,0.001 0.003,0.002 -3.7e-4,-0.001 -0.001,-0.002 -0.001,-0.003 -4.3e-4,3.1e-4 -0.001,0.001 -0.001,0.001 z m -1.30095,1.64809 3.7e-4,3.8e-4 3.8e-4,-3.7e-4 3.7e-4,3.7e-4 3.8e-4,-3.7e-4 3.7e-4,3.8e-4 3.7e-4,-3.7e-4 c 0.0463,-0.0326 0.12366,-0.0223 0.19027,0.0557 0.0264,-0.005 0.0527,-0.0104 0.0791,-0.0154 0.22971,-0.0439 0.27407,0.18818 0.044,0.23206 -0.0249,0.005 -0.0498,0.009 -0.0747,0.014 0.0551,0.0667 0.10857,0.13229 -0.006,0.11506 -0.0139,-0.002 -0.0301,-1.3e-4 -0.0434,-0.006 -0.0447,-0.0179 -0.078,-0.0528 -0.10737,-0.0908 -0.11731,-0.002 -0.1566,-0.0835 -0.10646,-0.15404 -0.0312,-0.0669 -0.017,-0.12322 0.0221,-0.15073 z m 2.17677,-1.84732 c -2e-4,9.4e-4 -4e-4,0.002 -4e-4,0.003 0.002,0.0214 0.0156,0.0443 0.035,0.054 0.0726,0.0386 0.0472,-0.0709 0.0366,-0.0903 -0.0214,0.008 -0.0479,0.0229 -0.0712,0.033 z m 1.62625,-0.43535 c 0.007,0.0101 0.0101,0.0133 0.0173,0.0235 -0.001,-0.0133 -0.006,-0.0227 -0.0173,-0.0235 z m 1.0977,0.12902 c 8.7e-4,0.007 0.001,0.0115 0.002,0.019 0.002,0.003 0.003,0.004 0.005,0.007 -0.003,-0.011 -0.004,-0.0149 -0.007,-0.026 z m -4.92005,4.92813 c 0.0268,-0.0245 0.069,-0.0427 0.12721,-0.0475 0.0642,-0.005 0.1062,-0.01 0.16893,-0.0117 0.0162,-4.8e-4 0.0448,-0.0152 0.049,4.2e-4 0.0192,0.0764 0.007,0.15711 0.0108,0.23579 0.004,0.0783 -0.005,0.0413 -0.0148,-0.0195 2.2e-4,0.007 0.002,0.013 0.002,0.0198 -2e-4,0.0117 -0.0238,-2.6e-4 -0.0351,-3.1e-4 -0.0584,0.002 -0.0964,0.005 -0.15649,0.0103 -0.17481,0.0143 -0.23213,-0.11404 -0.15149,-0.18732 z m 6.60842,-5.91071 c -0.0108,0.011 -0.0226,0.0269 -0.0211,0.0367 9.9e-4,0.008 0.008,0.014 0.0126,0.0209 0.009,-0.0225 0.0182,-0.0386 0.0269,-0.0655 0.003,-0.009 -0.008,-0.003 -0.0183,0.008 z m -6.6035,6.56449 c 0.0406,-0.0395 0.12667,-0.0429 0.22085,0.0264 0.0132,0.01 0.0264,0.0195 0.0396,0.0292 0.009,-6e-4 0.018,7.4e-4 0.031,0.0101 0.004,0.003 -0.0111,2.4e-4 -0.0168,5.8e-4 -0.005,-0.003 -0.009,-0.007 -0.0142,-0.0107 -0.0125,8.3e-4 -0.0239,0.007 -0.0378,0.0183 -0.18136,0.14771 0.35376,-0.0389 0.19508,0.13288 -0.0138,0.0151 -0.0249,0.0328 -0.0413,0.045 -0.11709,0.0874 -0.22975,0.0218 -0.32398,-0.0598 -0.0881,-0.0768 -0.093,-0.15242 -0.0524,-0.19193 z m 5.37288,-5.14711 c -0.0177,0.029 -0.0354,0.0579 -0.053,0.0869 0.0204,6e-5 0.0687,-0.0493 0.0591,-0.0733 -0.004,-0.009 -0.003,-0.005 -0.006,-0.0136 z m -5.31881,7.59078 c 0.0274,-0.0247 0.0803,-0.0146 0.10998,-0.04 0.0106,-0.009 0.0153,-0.0236 0.0241,-0.0345 0.0202,-0.0252 0.0409,-0.0502 0.0631,-0.0736 0.007,-0.007 0.009,-0.008 0.014,-0.013 -0.009,-0.008 -0.008,-0.01 0.006,-0.006 0.0284,-0.0281 0.041,-0.037 0.0857,-0.0639 0.0557,0.0466 0.11196,0.0929 0.1676,0.13959 0.13731,0.11461 -0.18098,-0.0506 -0.25331,-0.0756 -0.002,0.002 -0.004,0.003 -0.006,0.006 0.005,0.005 0.0102,0.01 0.028,0.0218 0.0555,0.0384 0.11118,0.0767 0.16673,0.11509 0.009,-0.009 0.0108,-0.008 0.005,0.004 -0.002,-9.5e-4 -0.003,-0.003 -0.005,-0.004 -0.006,0.005 -0.0114,0.0105 -0.0299,0.0301 -0.0268,0.0282 -0.0489,0.0607 -0.0764,0.0881 -0.0841,0.0838 -0.11948,0.10047 -0.22697,0.13104 -0.22493,0.064 -0.24663,-0.0688 -0.0726,-0.225 z m 8.78941,-7.65494 c 0.004,0.0102 0.003,0.007 0.008,0.0179 0.0414,0.11906 0.10087,0.23365 0.13469,0.35454 0.002,-0.008 0.007,-0.0163 0.009,-0.0244 0.0391,-0.15687 0.0625,-0.27279 0.0793,-0.3757 -0.0128,5.7e-4 -0.0255,0.002 -0.0384,0.003 -0.067,0.013 -0.12874,0.0185 -0.19135,0.025 z m 2.61548,-1.02862 3.7e-4,3.8e-4 3.7e-4,3.8e-4 3.8e-4,3.7e-4 c 0.003,-0.003 0.007,-0.006 0.009,-0.009 0.003,-0.003 -0.007,0.004 -0.0104,0.008 z m -0.38915,0.41721 3.7e-4,3.8e-4 c 0.0124,0.007 0.0199,0.0123 0.0382,0.0226 0.009,0.003 0.0185,0.005 0.0278,0.007 -0.0125,-0.006 -0.0565,-0.0258 -0.0659,-0.0301 z m -0.6561,0.69337 0.004,-0.004 c 2.1e-4,0.004 10e-4,0.007 0.002,0.0102 -1.4e-4,0.004 -0.008,-0.003 -0.006,-0.006 z m 1.9189,-0.8505 3.7e-4,3.8e-4 3.7e-4,3.8e-4 c -0.005,0.0111 -0.009,0.0176 -0.013,0.0251 0.003,-7.3e-4 0.0169,-0.003 0.0193,-0.004 2.9e-4,-0.008 -4.5e-4,-0.0171 8.3e-4,-0.0225 -0.003,0.001 -0.005,-4.2e-4 -0.007,-1.6e-4 z m 1.1676,-0.38818 c -0.001,0.0107 -0.003,0.0214 -0.004,0.0322 0.018,0.0111 0.0117,0.007 0.0217,0.0142 -0.004,-0.0139 -0.008,-0.0279 -0.0128,-0.0417 -9.2e-4,-9.4e-4 -7.2e-4,-0.005 -0.002,-0.007 z m 0.57992,0.96902 c -9.2e-4,0.007 10e-4,0.0165 -0.003,0.0207 -0.003,0.003 -0.008,0.004 -0.0111,0.007 0.0266,0.002 0.0535,0.003 0.0807,0.004 -0.005,-0.009 -0.0117,-0.0171 -0.0178,-0.0253 -0.004,1.6e-4 -0.006,-0.002 -0.008,-0.002 -0.0135,-0.002 -0.027,-0.004 -0.041,-0.005 z m 1.33864,-0.22152 c 0.0224,0.0228 0.0468,0.0438 0.0693,0.0667 0.002,0.002 0.003,0.004 0.007,0.003 0.008,1.1e-4 0.0163,3.9e-4 0.0246,4.8e-4 0.009,3e-4 0.0152,2e-5 0.0237,-8e-5 -0.007,-0.0179 1e-4,0.004 -0.0129,-0.0316 -0.002,-0.002 -0.002,-0.006 -0.002,-0.008 -0.01,-0.0143 -0.0145,-0.0321 -0.0145,-0.0517 -7.4e-4,-7.5e-4 -0.001,-0.002 -2.8e-4,-0.004 -0.0147,0.005 -0.039,0.0152 -0.044,0.0164 -0.016,0.004 -0.0325,0.004 -0.0487,0.007 z m -0.58902,1.17446 3.7e-4,3.8e-4 c 1.4e-4,1.5e-4 1.8e-4,1.9e-4 0.002,-0.001 2.2e-4,4e-5 -9.3e-4,-9.4e-4 -7.4e-4,-7.5e-4 z m 7.4e-4,7.6e-4 c -0.011,-10e-4 -0.0374,-0.002 0.0679,0.009 -0.0785,0.0278 0.008,0.0127 0.0562,0.006 0.013,-0.009 0.0263,-0.0158 0.0467,-0.0285 -0.0212,-0.0617 -0.0986,-0.0176 -0.17077,0.0135 z m 0.69978,-0.67543 c -0.003,3.5e-4 0.003,0.0124 0.0115,0.0279 0.005,-0.002 0.01,-0.002 0.0143,-0.005 -7.2e-4,-7.8e-4 -0.002,-0.001 -0.002,-0.002 -0.007,-0.007 -0.0133,-0.0135 -0.0199,-0.0203 -5.6e-4,-5.7e-4 -0.003,3.4e-4 -0.004,-3.6e-4 z m 0.33835,0.005 c 6.7e-4,4.6e-4 9.3e-4,9.4e-4 0.001,0.002 -3.5e-4,-4e-4 -0.001,-10e-4 -0.001,-0.002 0,0 0,0 0,0 z m -0.34468,0.64089 c -0.003,0.0305 4.1e-4,0.0551 0.0288,0.0557 0.01,3.5e-4 0.0177,-0.002 0.0238,-0.006 -0.003,-0.0152 -0.0106,-0.0338 -0.0174,-0.0517 -0.011,5.2e-4 -0.0226,7.9e-4 -0.0352,0.002 z" />
    </clipPath>
    <rect
       x="-200.45213"
       y="133.10022"
       width="176.93243"
       height="101.02788"
       id="rect967" />
    <rect
       x="-200.45213"
       y="133.10022"
       width="176.93243"
       height="101.02788"
       id="rect1740" />
  </defs>
  <sodipodi:namedview
     id="base"
     pagecolor="#ffffff"
     bordercolor="#666666"
     borderopacity="1.0"
     inkscape:pageopacity="0.0"
     inkscape:pageshadow="2"
     inkscape:zoom="0.7"
     inkscape:cx="477.95867"
     inkscape:cy="395.38806"
     inkscape:document-units="px"
     inkscape:current-layer="layer1"
     inkscape:document-rotation="0"
     showgrid="false"
     inkscape:pagecheckerboard="true"
     width="296mm"
     units="px"
     inkscape:window-width="1260"
     inkscape:window-height="967"
     inkscape:window-x="26"
     inkscape:window-y="4"
     inkscape:window-maximized="0" />
  <metadata
     id="metadata1160">
    <rdf:RDF>
      <cc:Work
         rdf:about="">
        <dc:format>image/svg+xml</dc:format>
        <dc:type
           rdf:resource="http://purl.org/dc/dcmitype/StillImage" />
        <dc:title />
      </cc:Work>
    </rdf:RDF>
  </metadata>
  <g
     inkscape:label="Capa 1"
     inkscape:groupmode="layer"
     id="layer1">
    <circle
       r="92.952995"
       cy="100.16369"
       cx="121.02797"
       id="circle949"
       style="font-variation-settings:'wdth' 100, 'wght' 400;fill:#000000;fill-opacity:1;fill-rule:evenodd;stroke:#ffb0b0;stroke-width:0.625578;paint-order:stroke fill markers" />
    <text
       transform="matrix(1.3982018,0,0,1.3982018,-5.5349805,-261.24838)"
       style="font-size:23.0723px;line-height:1.25;font-family:Bahnschrift;-inkscape-font-specification:'Bahnschrift, @wght=617,wdth=80.1';font-variation-settings:'wdth' 80.09999999999999432, 'wght' 617;white-space:pre;shape-inside:url(#rect965);fill:#db1820;fill-opacity:1;"
       id="text955"
       xml:space="preserve"><tspan
         x="52.160156"
         y="277.09281"><tspan
           style="fill:#db1820;fill-opacity:1">BOMBAI</tspan></tspan></text>
    <path
       clip-path="url(#clipPath1870)"
       transform="matrix(2.1834241,2.1458514,-2.1458514,2.1834241,-668.81513,-141.86738)"
       sodipodi:nodetypes="cccccc"
       d="m 224.40756,-141.29279 c 1.86015,0 3.91974,0 5.68997,0 3.27055,0 9.81166,0 9.81166,0 v 15.50164 h -15.50163 z"
       style="font-variation-settings:'wdth' 100, 'wght' 400;fill:#000000;fill-opacity:0;fill-rule:evenodd;stroke:#db1820;stroke-width:0.567267;stroke-opacity:1;paint-order:stroke fill markers"
       id="path957" />
    <path
       sodipodi:nodetypes="csscsscsaaassssssssassssascssscsccasc"
       id="path959"
       d="m 131.69476,51.962085 c -1e-4,0 -1.02308,-1.988667 -4.16408,-1.778442 -3.56835,0.238898 -4.66423,0.0794 -7.28046,2.29285 -1.73308,1.466274 -1.87192,2.391109 -3.68882,3.541764 0.003,0.0022 -1.38175,0.457824 -0.55323,-1.759132 0.85148,-2.278304 3.9659,-4.423567 6.25387,-5.415023 2.28804,-0.991466 5.72012,-0.991466 5.72012,-0.991466 0,0 2.44053,-0.152703 3.73712,0.533862 0,0 0.92997,0.362731 1.29649,0.686434 0.69777,0.616285 1.37134,1.385946 1.60168,2.287943 0.39876,1.561389 0.29503,3.422959 -0.53392,4.804902 -1.4057,2.343414 -5.61122,3.214565 -6.76222,4.634698 0,0 2.21642,0.780116 3.91801,2.592225 2.00958,2.140114 1.83237,4.80955 1.1925,7.314048 -0.85971,3.364986 -4.15202,5.943118 -6.66141,6.813927 -2.07118,0.718713 -4.97212,2.386709 -10.8447,-0.130118 -5.65786,-2.424788 -6.12469,-6.624919 -4.23781,-9.287746 1.99928,-2.821489 2.83383,-2.929453 4.10007,-4.006672 0.86955,-0.739732 1.16437,-0.474609 1.4291,-0.05382 0.23149,0.368013 -0.55988,0.802624 -0.8629,1.186418 -0.71099,0.900645 -1.48308,1.751438 -2.23802,2.615598 -1.4717,1.684549 -1.64084,4.722623 -0.41767,5.801221 1.17303,1.034365 3.03314,2.74655 6.32281,2.261178 3.28969,-0.485328 5.93223,-1.078598 8.30512,-3.828909 2.37285,-2.750432 2.6938,-3.953193 2.31896,-6.094067 -0.20438,-1.167742 -0.53924,-1.887491 -2.31896,-2.6965 -1.69288,-0.769485 -4.47617,-0.48535 -4.47617,-0.48535 0,0 -1.61789,4.58404 -2.64246,5.716542 -1.02471,1.132569 -3.12792,1.348231 -0.91682,-6.579378 2.21108,-7.927649 2.26499,-8.952287 3.18181,-9.329773 0.91681,-0.377475 1.67182,0.431468 1.67182,0.431468 0,0 0.59323,0.269566 0.26957,1.456061 -0.32354,1.186495 -1.07848,4.583947 -1.07848,4.583947 v 0.75505 c 0,0 5.7727,-2.072049 7.50606,-4.396561 0.71338,-0.956684 1.28438,-2.344615 0.85292,-3.477106 z"
       style="fill:#db1820;fill-opacity:1;stroke:#db1820;stroke-width:0.256258;stroke-linecap:butt;stroke-linejoin:miter;stroke-miterlimit:4;stroke-dasharray:none;stroke-opacity:1" />
    <text
       xml:space="preserve"
       id="text963"
       style="font-style:normal;font-variant:normal;font-weight:normal;font-stretch:normal;font-size:15.37px;line-height:1.25;font-family:Bahnschrift;-inkscape-font-specification:'Bahnschrift, @wght=617,wdth=80.1';font-variant-ligatures:normal;font-variant-caps:normal;font-variant-numeric:normal;font-variant-east-asian:normal;font-variation-settings:'wdth' 80.09999999999999432, 'wght' 617;white-space:pre;shape-inside:url(#rect967);fill:#ffffff;"
       transform="matrix(1.0829093,0,0,1.0829093,287.16302,-14.978206)"><tspan
         x="-200.45117"
         y="147.2238"><tspan
           style="font-style:normal;font-variant:normal;font-weight:normal;font-stretch:normal;font-size:15.37px;font-family:Bahnschrift;-inkscape-font-specification:'Bahnschrift, @wght=617,wdth=80.1';font-variant-ligatures:normal;font-variant-caps:normal;font-variant-numeric:normal;font-variant-east-asian:normal;font-variation-settings:'wdth' 80.1, 'wght' 617;fill:#ffffff">@ BombaiMTY
</tspan></tspan><tspan
         x="-200.45117"
         y="166.43629"><tspan
           style="font-style:normal;font-variant:normal;font-weight:normal;font-stretch:normal;font-size:15.37px;font-family:Bahnschrift;-inkscape-font-specification:'Bahnschrift, @wght=617,wdth=80.1';font-variant-ligatures:normal;font-variant-caps:normal;font-variant-numeric:normal;font-variant-east-asian:normal;font-variation-settings:'wdth' 80.1, 'wght' 617;fill:#ffffff">   8129131222</tspan></tspan></text>
  </g>
</svg>
